<svg width="512" height="512" viewBox="0 0 512 512" fill="none" xmlns="http://www.w3.org/2000/svg">
<g clip-path="url(#clip0_341_2666)">
<path d="M66.5 379.259C48.8631 379.259 31.9486 386.252 19.4774 398.699C7.00623 411.146 0 428.027 0 445.63C0 463.232 7.00623 480.114 19.4774 492.561C31.9486 505.007 48.8631 512 66.5 512C84.1369 512 101.051 505.007 113.523 492.561C125.994 480.114 133 463.232 133 445.63C133 428.027 125.994 411.146 113.523 398.699C101.051 386.252 84.1369 379.259 66.5 379.259ZM66.5 189.63C48.8631 189.63 31.9486 196.622 19.4774 209.069C7.00623 221.516 0 238.397 0 256C0 273.603 7.00623 290.484 19.4774 302.931C31.9486 315.378 48.8631 322.37 66.5 322.37C84.1369 322.37 101.051 315.378 113.523 302.931C125.994 290.484 133 273.603 133 256C133 238.397 125.994 221.516 113.523 209.069C101.051 196.622 84.1369 189.63 66.5 189.63ZM133 66.3704C133 48.7679 125.994 31.8863 113.523 19.4394C101.051 6.99257 84.1369 0 66.5 0C48.8631 0 31.9486 6.99257 19.4774 19.4394C7.00623 31.8863 0 48.7679 0 66.3704C0 83.9729 7.00623 100.854 19.4774 113.301C31.9486 125.748 48.8631 132.741 66.5 132.741C84.1369 132.741 101.051 125.748 113.523 113.301C125.994 100.854 133 83.9729 133 66.3704Z" fill="black"/>
<path d="M256 379.259C238.363 379.259 221.449 386.252 208.977 398.699C196.506 411.146 189.5 428.027 189.5 445.63C189.5 463.232 196.506 480.114 208.977 492.561C221.449 505.007 238.363 512 256 512C273.637 512 290.551 505.007 303.023 492.561C315.494 480.114 322.5 463.232 322.5 445.63C322.5 428.027 315.494 411.146 303.023 398.699C290.551 386.252 273.637 379.259 256 379.259ZM256 189.63C238.363 189.63 221.449 196.622 208.977 209.069C196.506 221.516 189.5 238.397 189.5 256C189.5 273.603 196.506 290.484 208.977 302.931C221.449 315.378 238.363 322.37 256 322.37C273.637 322.37 290.551 315.378 303.023 302.931C315.494 290.484 322.5 273.603 322.5 256C322.5 238.397 315.494 221.516 303.023 209.069C290.551 196.622 273.637 189.63 256 189.63ZM322.5 66.3704C322.5 48.7679 315.494 31.8863 303.023 19.4394C290.551 6.99257 273.637 0 256 0C238.363 0 221.449 6.99257 208.977 19.4394C196.506 31.8863 189.5 48.7679 189.5 66.3704C189.5 83.9729 196.506 100.854 208.977 113.301C221.449 125.748 238.363 132.741 256 132.741C273.637 132.741 290.551 125.748 303.023 113.301C315.494 100.854 322.5 83.9729 322.5 66.3704Z" fill="black"/>
<path d="M445.5 379.259C427.863 379.259 410.949 386.252 398.477 398.699C386.006 411.146 379 428.027 379 445.63C379 463.232 386.006 480.114 398.477 492.561C410.949 505.007 427.863 512 445.5 512C463.137 512 480.051 505.007 492.523 492.561C504.994 480.114 512 463.232 512 445.63C512 428.027 504.994 411.146 492.523 398.699C480.051 386.252 463.137 379.259 445.5 379.259ZM445.5 189.63C427.863 189.63 410.949 196.622 398.477 209.069C386.006 221.516 379 238.397 379 256C379 273.603 386.006 290.484 398.477 302.931C410.949 315.378 427.863 322.37 445.5 322.37C463.137 322.37 480.051 315.378 492.523 302.931C504.994 290.484 512 273.603 512 256C512 238.397 504.994 221.516 492.523 209.069C480.051 196.622 463.137 189.63 445.5 189.63ZM512 66.3704C512 48.7679 504.994 31.8863 492.523 19.4394C480.051 6.99257 463.137 0 445.5 0C427.863 0 410.949 6.99257 398.477 19.4394C386.006 31.8863 379 48.7679 379 66.3704C379 83.9729 386.006 100.854 398.477 113.301C410.949 125.748 427.863 132.741 445.5 132.741C463.137 132.741 480.051 125.748 492.523 113.301C504.994 100.854 512 83.9729 512 66.3704Z" fill="black"/>
</g>
<defs>
<clipPath id="clip0_341_2666">
<rect width="512" height="512" fill="white"/>
</clipPath>
</defs>
</svg>
