<svg width="40" height="40" viewBox="0 0 40 40" fill="none" xmlns="http://www.w3.org/2000/svg">
<path d="M5 10C6.32608 10 7.59785 9.47322 8.53553 8.53553C9.47322 7.59785 10 6.32608 10 5C10 3.67392 9.47322 2.40215 8.53553 1.46447C7.59785 0.526784 6.32608 0 5 0C3.67392 0 2.40215 0.526784 1.46447 1.46447C0.526784 2.40215 0 3.67392 0 5C0 6.32608 0.526784 7.59785 1.46447 8.53553C2.40215 9.47322 3.67392 10 5 10Z" fill="black"/>
<path d="M5 25C6.32608 25 7.59785 24.4732 8.53553 23.5355C9.47322 22.5979 10 21.3261 10 20C10 18.6739 9.47322 17.4021 8.53553 16.4645C7.59785 15.5268 6.32608 15 5 15C3.67392 15 2.40215 15.5268 1.46447 16.4645C0.526784 17.4021 0 18.6739 0 20C0 21.3261 0.526784 22.5979 1.46447 23.5355C2.40215 24.4732 3.67392 25 5 25Z" fill="black"/>
<path d="M5 40C6.32608 40 7.59785 39.4732 8.53553 38.5355C9.47322 37.5979 10 36.3261 10 35C10 33.6739 9.47322 32.4021 8.53553 31.4645C7.59785 30.5268 6.32608 30 5 30C3.67392 30 2.40215 30.5268 1.46447 31.4645C0.526784 32.4021 0 33.6739 0 35C0 36.3261 0.526784 37.5979 1.46447 38.5355C2.40215 39.4732 3.67392 40 5 40Z" fill="black"/>
<path d="M20 10C21.3261 10 22.5979 9.47322 23.5355 8.53553C24.4732 7.59785 25 6.32608 25 5C25 3.67392 24.4732 2.40215 23.5355 1.46447C22.5979 0.526784 21.3261 0 20 0C18.6739 0 17.4021 0.526784 16.4645 1.46447C15.5268 2.40215 15 3.67392 15 5C15 6.32608 15.5268 7.59785 16.4645 8.53553C17.4021 9.47322 18.6739 10 20 10Z" fill="black"/>
<path d="M20 25C21.3261 25 22.5979 24.4732 23.5355 23.5355C24.4732 22.5979 25 21.3261 25 20C25 18.6739 24.4732 17.4021 23.5355 16.4645C22.5979 15.5268 21.3261 15 20 15C18.6739 15 17.4021 15.5268 16.4645 16.4645C15.5268 17.4021 15 18.6739 15 20C15 21.3261 15.5268 22.5979 16.4645 23.5355C17.4021 24.4732 18.6739 25 20 25Z" fill="black"/>
<path d="M20 40C21.3261 40 22.5979 39.4732 23.5355 38.5355C24.4732 37.5979 25 36.3261 25 35C25 33.6739 24.4732 32.4021 23.5355 31.4645C22.5979 30.5268 21.3261 30 20 30C18.6739 30 17.4021 30.5268 16.4645 31.4645C15.5268 32.4021 15 33.6739 15 35C15 36.3261 15.5268 37.5979 16.4645 38.5355C17.4021 39.4732 18.6739 40 20 40Z" fill="black"/>
<path d="M35 10C36.3261 10 37.5979 9.47322 38.5355 8.53553C39.4732 7.59785 40 6.32608 40 5C40 3.67392 39.4732 2.40215 38.5355 1.46447C37.5979 0.526784 36.3261 0 35 0C33.6739 0 32.4021 0.526784 31.4645 1.46447C30.5268 2.40215 30 3.67392 30 5C30 6.32608 30.5268 7.59785 31.4645 8.53553C32.4021 9.47322 33.6739 10 35 10Z" fill="black"/>
<path d="M35 25C36.3261 25 37.5979 24.4732 38.5355 23.5355C39.4732 22.5979 40 21.3261 40 20C40 18.6739 39.4732 17.4021 38.5355 16.4645C37.5979 15.5268 36.3261 15 35 15C33.6739 15 32.4021 15.5268 31.4645 16.4645C30.5268 17.4021 30 18.6739 30 20C30 21.3261 30.5268 22.5979 31.4645 23.5355C32.4021 24.4732 33.6739 25 35 25Z" fill="black"/>
<path d="M35 40C36.3261 40 37.5979 39.4732 38.5355 38.5355C39.4732 37.5979 40 36.3261 40 35C40 33.6739 39.4732 32.4021 38.5355 31.4645C37.5979 30.5268 36.3261 30 35 30C33.6739 30 32.4021 30.5268 31.4645 31.4645C30.5268 32.4021 30 33.6739 30 35C30 36.3261 30.5268 37.5979 31.4645 38.5355C32.4021 39.4732 33.6739 40 35 40Z" fill="black"/>
</svg>
