<svg width="36" height="40" viewBox="0 0 36 40" fill="none" xmlns="http://www.w3.org/2000/svg">
<path d="M6.42857 8.125C6.94006 8.125 7.4306 7.92746 7.79228 7.57583C8.15395 7.22419 8.35714 6.74728 8.35714 6.25C8.35714 5.75272 8.15395 5.27581 7.79228 4.92417C7.4306 4.57254 6.94006 4.375 6.42857 4.375C5.91708 4.375 5.42654 4.57254 5.06487 4.92417C4.70319 5.27581 4.5 5.75272 4.5 6.25C4.5 6.74728 4.70319 7.22419 5.06487 7.57583C5.42654 7.92746 5.91708 8.125 6.42857 8.125ZM12.8571 6.25C12.8571 8.8125 11.2741 11.0156 9 11.9766V15C9 16.3828 10.1491 17.5 11.5714 17.5H24.4286C25.8509 17.5 27 16.3828 27 15V11.9766C24.7259 11.0156 23.1429 8.8125 23.1429 6.25C23.1429 2.79688 26.0196 0 29.5714 0C33.1232 0 36 2.79688 36 6.25C36 8.8125 34.417 11.0156 32.1429 11.9766V15C32.1429 19.1406 28.6875 22.5 24.4286 22.5H20.5714V28.0234C22.8455 28.9844 24.4286 31.1875 24.4286 33.75C24.4286 37.2031 21.5518 40 18 40C14.4482 40 11.5714 37.2031 11.5714 33.75C11.5714 31.1875 13.1545 28.9844 15.4286 28.0234V22.5H11.5714C7.3125 22.5 3.85714 19.1406 3.85714 15V11.9766C1.58304 11.0156 0 8.8125 0 6.25C0 2.79688 2.87679 0 6.42857 0C9.98036 0 12.8571 2.79688 12.8571 6.25ZM29.5714 8.125C30.0829 8.125 30.5735 7.92746 30.9351 7.57583C31.2968 7.22419 31.5 6.74728 31.5 6.25C31.5 5.75272 31.2968 5.27581 30.9351 4.92417C30.5735 4.57254 30.0829 4.375 29.5714 4.375C29.0599 4.375 28.5694 4.57254 28.2077 4.92417C27.846 5.27581 27.6429 5.75272 27.6429 6.25C27.6429 6.74728 27.846 7.22419 28.2077 7.57583C28.5694 7.92746 29.0599 8.125 29.5714 8.125ZM19.9286 33.75C19.9286 33.2527 19.7254 32.7758 19.3637 32.4242C19.002 32.0725 18.5115 31.875 18 31.875C17.4885 31.875 16.998 32.0725 16.6363 32.4242C16.2746 32.7758 16.0714 33.2527 16.0714 33.75C16.0714 34.2473 16.2746 34.7242 16.6363 35.0758C16.998 35.4275 17.4885 35.625 18 35.625C18.5115 35.625 19.002 35.4275 19.3637 35.0758C19.7254 34.7242 19.9286 34.2473 19.9286 33.75Z" fill="black"/>
</svg>
