<svg width="16" height="16" viewBox="0 0 16 16" fill="none" xmlns="http://www.w3.org/2000/svg">
<g clip-path="url(#clip0_350_2724)">
<mask id="mask0_350_2724" style="mask-type:luminance" maskUnits="userSpaceOnUse" x="0" y="0" width="16" height="16">
<path d="M13 0H3C1.34315 0 0 1.34315 0 3V13C0 14.6569 1.34315 16 3 16H13C14.6569 16 16 14.6569 16 13V3C16 1.34315 14.6569 0 13 0Z" fill="white"/>
</mask>
<g mask="url(#mask0_350_2724)">
<path d="M14.9619 2.97412H8.14385L7.43421 5.72901L7.17944 7.53951L8.54511 11.3617L8.76439 15.9998H14.9619C15.5351 15.9998 15.9999 15.5333 15.9999 14.9582V4.01573C15.9999 3.44058 15.5351 2.97412 14.9619 2.97412Z" fill="#E6E6E6"/>
<path d="M10.6668 12.9937L8.81431 16.0001L6.76929 12.9937L8.21085 11.8975L10.6668 12.9937Z" fill="#C85C00"/>
<path d="M10.6667 13.0256H7.98783H1.04436C0.467253 13.0256 0 12.5592 0 11.984V1.04161C0 0.466464 0.467253 0 1.04436 0H8.394L10.6667 13.0256Z" fill="#F58220"/>
<path d="M1.59222 5.6001C1.35657 5.6001 1.22013 5.71813 1.22013 5.84928C1.22013 6.08535 1.45579 6.09191 1.45579 6.30174C1.45579 6.53125 1.0899 8.80667 0.978267 9.53454C0.90385 10.0263 0.599976 9.90828 0.599976 10.1706C0.599976 10.328 0.717805 10.4001 0.941059 10.4001H2.33641C2.53486 10.4001 2.67129 10.2558 2.67129 10.1247C2.67129 9.94113 2.42323 9.92147 2.42323 9.68539C2.42323 9.45585 2.47284 9.24601 2.56587 8.56405C4.03563 8.56405 5.39998 7.89519 5.39998 6.68863C5.39998 6.10502 4.91006 5.6001 4.00463 5.6001H1.59222ZM2.85734 6.51814C2.89455 6.26895 3.04339 6.11158 3.23563 6.11158C3.60773 6.11158 3.82478 6.38699 3.82478 6.77387C3.82478 7.42306 3.21703 7.96077 2.63408 7.987L2.85734 6.51814Z" fill="white"/>
<path d="M5.97049 10.4001C6.16977 10.4001 6.32546 10.3149 6.32546 10.1313C6.32546 9.94768 6.07636 9.93457 6.07636 9.69194C6.07636 9.53454 6.18846 9.2329 6.49984 6.41322H6.51229L6.94821 9.31159C6.99804 9.63944 7.13504 9.77058 7.54607 9.77058C7.82629 9.77058 7.98195 9.76403 8.24357 9.20667L9.51396 6.49191L9.52641 6.50502C8.99087 9.08864 8.96597 9.37716 8.91611 9.65909C8.87254 9.92147 8.55491 9.97389 8.55491 10.1706C8.55491 10.3215 8.66079 10.4001 8.87254 10.4001H10.3547C10.4917 10.4001 10.6225 10.2624 10.6225 10.1116C10.6225 9.95423 10.3858 9.91483 10.3858 9.69849C10.3858 9.45585 10.7097 7.75092 10.9339 6.43945C11.0085 6.00666 11.32 6.07878 11.32 5.82305C11.32 5.69846 11.2452 5.6001 11.0335 5.6001H9.70082C9.47662 5.6001 9.3334 5.69846 9.18388 6.01977L8.16881 8.18371H8.15637C7.90727 5.94109 7.88238 5.6001 7.53362 5.6001H6.12618C5.85217 5.60666 5.72139 5.70501 5.71516 5.88207C5.71516 6.05256 5.96426 6.08535 5.96426 6.30174C5.96426 6.49191 5.54702 9.07552 5.47851 9.51487C5.40378 10.0067 5.07996 9.94113 5.07996 10.1838C5.07996 10.3542 5.21696 10.4001 5.44115 10.4001H5.97049Z" fill="white"/>
<mask id="mask1_350_2724" style="mask-type:alpha" maskUnits="userSpaceOnUse" x="0" y="5" width="16" height="6">
<path d="M10.76 9.30168C10.76 10.0065 11.9498 10.4001 12.9891 10.4001C14.2062 10.4001 15.4916 9.63821 15.4916 8.55883C15.4916 7.11121 12.9891 7.53026 12.9891 6.66042C12.9891 6.3493 13.3173 6.09534 13.7959 6.09534C15.1429 6.09534 14.5207 7.1493 15.1429 7.1493C15.4233 7.1493 15.56 6.94613 15.56 6.19692C15.56 5.89216 14.4386 5.6001 13.6523 5.6001C12.1686 5.6001 11.307 6.4001 11.307 7.31438C11.307 8.87629 13.8096 8.35566 13.8096 9.18105C13.8096 9.52391 13.454 9.84133 12.8933 9.84133C11.5532 9.84133 11.854 8.82549 11.2455 8.82549C10.9583 8.82549 10.76 9.04771 10.76 9.30168Z" fill="white"/>
<path d="M1.59222 5.6001C1.35657 5.6001 1.22013 5.71813 1.22013 5.84928C1.22013 6.08535 1.45579 6.09191 1.45579 6.30174C1.45579 6.53125 1.0899 8.80667 0.978267 9.53454C0.90385 10.0263 0.599976 9.90828 0.599976 10.1706C0.599976 10.328 0.717805 10.4001 0.941059 10.4001H2.33641C2.53486 10.4001 2.67129 10.2558 2.67129 10.1247C2.67129 9.94113 2.42323 9.92147 2.42323 9.68539C2.42323 9.45585 2.47284 9.24601 2.56587 8.56405C4.03563 8.56405 5.39998 7.89519 5.39998 6.68863C5.39998 6.10502 4.91006 5.6001 4.00463 5.6001H1.59222ZM2.85734 6.51814C2.89455 6.26895 3.04339 6.11158 3.23563 6.11158C3.60773 6.11158 3.82478 6.38699 3.82478 6.77387C3.82478 7.42306 3.21703 7.96077 2.63408 7.987L2.85734 6.51814Z" fill="white"/>
<path d="M5.97049 10.4001C6.16977 10.4001 6.32546 10.3149 6.32546 10.1313C6.32546 9.94768 6.07636 9.93457 6.07636 9.69194C6.07636 9.53454 6.18846 9.2329 6.49984 6.41322H6.51229L6.94821 9.31159C6.99804 9.63944 7.13504 9.77058 7.54607 9.77058C7.82629 9.77058 7.98195 9.76403 8.24357 9.20667L9.51396 6.49191L9.52641 6.50502C8.99087 9.08864 8.96597 9.37716 8.91611 9.65909C8.87254 9.92147 8.55491 9.97389 8.55491 10.1706C8.55491 10.3215 8.66079 10.4001 8.87254 10.4001H10.3547C10.4917 10.4001 10.6225 10.2624 10.6225 10.1116C10.6225 9.95423 10.3858 9.91483 10.3858 9.69849C10.3858 9.45585 10.7097 7.75092 10.9339 6.43945C11.0085 6.00666 11.32 6.07878 11.32 5.82305C11.32 5.69846 11.2452 5.6001 11.0335 5.6001H9.70082C9.47662 5.6001 9.3334 5.69846 9.18388 6.01977L8.16881 8.18371H8.15637C7.90727 5.94109 7.88238 5.6001 7.53362 5.6001H6.12618C5.85217 5.60666 5.72139 5.70501 5.71516 5.88207C5.71516 6.05256 5.96426 6.08535 5.96426 6.30174C5.96426 6.49191 5.54702 9.07552 5.47851 9.51487C5.40378 10.0067 5.07996 9.94113 5.07996 10.1838C5.07996 10.3542 5.21696 10.4001 5.44115 10.4001H5.97049Z" fill="white"/>
</mask>
<g mask="url(#mask1_350_2724)">
<path d="M8.29192 11.5872L7.5 5.5L7.46606 4L18 4.67097L17.7202 11.5872H8.29192Z" fill="black"/>
<path d="M7.94222 10.2206L6.99962 4.81075C6.20727 4.4419 4.31928 3.36812 4.25371 3.33534C4.17174 3.29436 0.811074 3.95009 0.770092 4.03206C0.729109 4.11403 0.524183 10.1797 0.483201 10.3026C0.450418 10.401 5.21 10.2479 7.94222 10.2206Z" fill="white"/>
</g>
</g>
</g>
<defs>
<clipPath id="clip0_350_2724">
<rect width="16" height="16" fill="white"/>
</clipPath>
</defs>
</svg>
