<svg width="577" height="512" viewBox="0 0 577 512" fill="none" xmlns="http://www.w3.org/2000/svg">
<g clip-path="url(#clip0_490_5638)">
<path d="M0.5 24C0.5 10.7 11.2 0 24.5 0H70C92 0 111.5 12.8 120.6 32H531.6C557.9 32 577.1 57 570.2 82.4L529.2 234.7C520.7 266.1 492.2 288 459.7 288H171.2L176.6 316.5C178.8 327.8 188.7 336 200.2 336H488.5C501.8 336 512.5 346.7 512.5 360C512.5 373.3 501.8 384 488.5 384H200.2C165.6 384 135.9 359.4 129.5 325.5L77.9 54.5C77.2 50.7 73.9 48 70 48H24.5C11.2 48 0.5 37.3 0.5 24ZM128.5 464C128.5 457.697 129.742 451.455 132.154 445.631C134.566 439.808 138.102 434.516 142.559 430.059C147.016 425.602 152.308 422.066 158.131 419.654C163.955 417.242 170.197 416 176.5 416C182.803 416 189.045 417.242 194.869 419.654C200.692 422.066 205.984 425.602 210.441 430.059C214.898 434.516 218.434 439.808 220.846 445.631C223.258 451.455 224.5 457.697 224.5 464C224.5 470.303 223.258 476.545 220.846 482.369C218.434 488.192 214.898 493.484 210.441 497.941C205.984 502.398 200.692 505.934 194.869 508.346C189.045 510.758 182.803 512 176.5 512C170.197 512 163.955 510.758 158.131 508.346C152.308 505.934 147.016 502.398 142.559 497.941C138.102 493.484 134.566 488.192 132.154 482.369C129.742 476.545 128.5 470.303 128.5 464ZM464.5 416C477.23 416 489.439 421.057 498.441 430.059C507.443 439.061 512.5 451.27 512.5 464C512.5 476.73 507.443 488.939 498.441 497.941C489.439 506.943 477.23 512 464.5 512C451.77 512 439.561 506.943 430.559 497.941C421.557 488.939 416.5 476.73 416.5 464C416.5 451.27 421.557 439.061 430.559 430.059C439.561 421.057 451.77 416 464.5 416Z" fill="black"/>
</g>
<defs>
<clipPath id="clip0_490_5638">
<rect width="576" height="512" fill="white" transform="translate(0.5)"/>
</clipPath>
</defs>
</svg>
