<svg width="16" height="16" viewBox="0 0 16 16" fill="none" xmlns="http://www.w3.org/2000/svg">
<g clip-path="url(#clip0_354_2670)">
<mask id="mask0_354_2670" style="mask-type:luminance" maskUnits="userSpaceOnUse" x="0" y="0" width="16" height="16">
<path d="M13 0H3C1.34315 0 0 1.34315 0 3V13C0 14.6569 1.34315 16 3 16H13C14.6569 16 16 14.6569 16 13V3C16 1.34315 14.6569 0 13 0Z" fill="white"/>
</mask>
<g mask="url(#mask0_354_2670)">
<path d="M14.7055 3H6.20271L5.31772 5.74946L5 7.5564L6.70312 11.371L7.79114 16H14.7055C15.4203 16 16 15.5344 16 14.9605V4.03956C16 3.46554 15.4203 3 14.7055 3Z" fill="#E6E6E6"/>
<path d="M9.70005 12.9937L7.8464 16.0001L5.80005 12.9937L7.24254 11.8975L9.70005 12.9937Z" fill="#4D179A"/>
<path d="M9.7 13H7.26391H0.949712C0.424907 13 0 12.5345 0 11.9604V1.03956C0 0.465547 0.424907 0 0.949712 0H7.63327L9.7 13Z" fill="#7008E7"/>
<path d="M6.89917 10.05C7.07801 10.05 7.21774 9.97368 7.21774 9.80916C7.21774 9.64471 6.99419 9.63297 6.99419 9.41561C6.99419 9.27461 7.09478 9.00438 7.37423 6.47842H7.3854L7.77662 9.07488C7.82133 9.36857 7.94428 9.48606 8.31315 9.48606C8.56463 9.48606 8.70433 9.48019 8.93912 8.98089L10.0792 6.54891L10.0904 6.56066C9.60977 8.87515 9.58743 9.13362 9.54268 9.38619C9.50358 9.62123 9.21852 9.66819 9.21852 9.84438C9.21852 9.97955 9.31354 10.05 9.50358 10.05H10.8337C10.9566 10.05 11.074 9.92665 11.074 9.79155C11.074 9.65058 10.8616 9.61529 10.8616 9.42148C10.8616 9.20412 11.1523 7.67678 11.3535 6.50192C11.4205 6.11421 11.7 6.17882 11.7 5.94973C11.7 5.83812 11.6329 5.75 11.4429 5.75H10.2469C10.0457 5.75 9.91717 5.83812 9.78298 6.12596L8.87203 8.06449H8.86086C8.63731 6.05547 8.61497 5.75 8.30198 5.75H7.0389C6.79298 5.75588 6.67562 5.84399 6.67003 6.0026C6.67003 6.15533 6.89358 6.1847 6.89358 6.37856C6.89358 6.54891 6.51913 8.8634 6.45765 9.25698C6.39059 9.69755 6.09998 9.63884 6.09998 9.8562C6.09998 10.0089 6.22293 10.05 6.42412 10.05H6.89917Z" fill="white"/>
<mask id="mask1_354_2670" style="mask-type:alpha" maskUnits="userSpaceOnUse" x="0" y="5" width="16" height="6">
<path d="M11.2 9.14312C11.2 9.78917 12.2906 10.15 13.2433 10.15C14.3589 10.15 15.5373 9.4516 15.5373 8.46217C15.5373 7.13518 13.2433 7.51931 13.2433 6.72196C13.2433 6.43677 13.5441 6.20397 13.9829 6.20397C15.2176 6.20397 14.6472 7.1701 15.2176 7.1701C15.4746 7.1701 15.6 6.98386 15.6 6.29709C15.6 6.01773 14.572 5.75 13.8512 5.75C12.4911 5.75 11.7014 6.48334 11.7014 7.32142C11.7014 8.75318 13.9954 8.27593 13.9954 9.03254C13.9954 9.34683 13.6695 9.6378 13.1555 9.6378C11.927 9.6378 12.2028 8.70661 11.645 8.70661C11.3817 8.70661 11.2 8.91031 11.2 9.14312Z" fill="white"/>
<path d="M6.89917 10.05C7.07801 10.05 7.21774 9.97368 7.21774 9.80916C7.21774 9.64471 6.99419 9.63297 6.99419 9.41561C6.99419 9.27461 7.09478 9.00438 7.37423 6.47842H7.3854L7.77662 9.07488C7.82133 9.36857 7.94428 9.48606 8.31315 9.48606C8.56463 9.48606 8.70433 9.48019 8.93912 8.98089L10.0792 6.54891L10.0904 6.56066C9.60977 8.87515 9.58743 9.13362 9.54268 9.38619C9.50358 9.62123 9.21852 9.66819 9.21852 9.84438C9.21852 9.97955 9.31354 10.05 9.50358 10.05H10.8337C10.9566 10.05 11.074 9.92665 11.074 9.79155C11.074 9.65058 10.8616 9.61528 10.8616 9.42148C10.8616 9.20412 11.1523 7.67678 11.3535 6.50192C11.4205 6.11421 11.7 6.17882 11.7 5.94973C11.7 5.83812 11.6329 5.75 11.4429 5.75H10.2469C10.0457 5.75 9.91717 5.83812 9.78298 6.12596L8.87203 8.06449H8.86086C8.63731 6.05547 8.61497 5.75 8.30198 5.75H7.0389C6.79298 5.75588 6.67562 5.84399 6.67003 6.0026C6.67003 6.15533 6.89358 6.1847 6.89358 6.37856C6.89358 6.54891 6.51913 8.8634 6.45765 9.25698C6.39059 9.69755 6.09998 9.63884 6.09998 9.8562C6.09998 10.0089 6.22293 10.05 6.42412 10.05H6.89917Z" fill="white"/>
<path d="M0.638 5.7544H1.9488C2.1692 5.7544 2.2736 5.8414 2.2736 5.9574C2.2736 6.2706 1.856 6.056 1.856 6.5954C1.856 7.0652 1.972 8.202 2.03 8.8748H2.0416C2.4534 8.2194 2.8188 7.2566 2.8188 6.462C2.8188 6.0734 2.5868 6.201 2.5868 5.969C2.5868 5.8356 2.697 5.7544 2.8768 5.7544H4.2224C4.408 5.7544 4.524 5.7892 4.524 5.9342C4.524 6.2474 4.1296 6.027 4.1296 6.52C4.1296 7.796 4.2514 8.492 4.3964 8.8168C4.8256 8.2194 5.394 6.6998 5.394 6.4098C5.394 6.1198 5.0808 6.2068 5.0808 5.94C5.0808 5.824 5.1852 5.7544 5.3128 5.7544H6.1828C6.3858 5.7544 6.438 5.8066 6.438 5.9342C6.438 6.172 6.1538 6.1198 6.0842 6.3576C5.887 7.0304 5.7188 7.477 5.249 8.405C4.524 9.8318 4.5588 10 3.9034 10C3.1204 10 3.19 9.826 2.9348 8.086H2.9232C2.0184 9.9304 2.0068 10 1.4442 10C1.2354 10 0.9744 9.9826 0.8584 9.7796C0.6438 9.4084 0.522 8.0338 0.522 6.433C0.522 6.0444 0.29 6.2126 0.29 5.9864C0.29 5.8472 0.406 5.7544 0.638 5.7544Z" fill="black"/>
</mask>
<g mask="url(#mask1_354_2670)">
<path d="M9.5 12L8.6 6L8 4L16 4.70748L15.7734 12H9.5Z" fill="black"/>
<path d="M9.3 10.9649L9.06674 9.39379L8.94504 8.60823L8.82334 7.82268L8.31625 4.68048C7.29057 4.26088 4.96595 3.03939 4.88106 3.0021C4.77496 2.95548 0.424655 3.70142 0.371605 3.79466C0.318554 3.88791 0.0532817 10.788 0.00023135 10.9278C-0.0422048 11.0397 5.7632 10.996 9.3 10.9649Z" fill="white"/>
</g>
</g>
</g>
<defs>
<clipPath id="clip0_354_2670">
<rect width="16" height="16" fill="white"/>
</clipPath>
</defs>
</svg>
