<svg width="16" height="16" viewBox="0 0 16 16" fill="none" xmlns="http://www.w3.org/2000/svg">
<g clip-path="url(#clip0_350_2673)">
<mask id="mask0_350_2673" style="mask-type:luminance" maskUnits="userSpaceOnUse" x="0" y="0" width="16" height="16">
<path d="M13 0H3C1.34315 0 0 1.34315 0 3V13C0 14.6569 1.34315 16 3 16H13C14.6569 16 16 14.6569 16 13V3C16 1.34315 14.6569 0 13 0Z" fill="white"/>
</mask>
<g mask="url(#mask0_350_2673)">
<path d="M14.962 2.97412H8.14385L7.4342 5.72901L7.17944 7.53951L8.54511 11.3617L8.76438 15.9998H14.962C15.5352 15.9998 16 15.5333 16 14.9582V4.01573C16 3.44058 15.5351 2.97412 14.962 2.97412Z" fill="#E6E6E6"/>
<path d="M10.6667 12.9937L8.81432 16.0001L6.76929 12.9937L8.21085 11.8975L10.6667 12.9937Z" fill="#000C4E"/>
<path d="M10.6667 13.0256H7.98783H1.04436C0.467253 13.0256 0 12.5592 0 11.984V1.04161C0 0.466464 0.467253 0 1.04436 0H8.394L10.6667 13.0256Z" fill="#00189C"/>
<path d="M5.67915 10C5.87588 10 6.02957 9.92013 6.02957 9.74796C6.02957 9.57586 5.78366 9.56357 5.78366 9.3361C5.78366 9.18855 5.89431 8.90576 6.2017 6.2623H6.21399L6.64432 8.97953C6.6935 9.28688 6.82875 9.40983 7.23447 9.40983C7.51117 9.40983 7.66483 9.40368 7.92302 8.88117L9.17709 6.33607L9.18945 6.34837C8.66072 8.77051 8.63614 9.041 8.58692 9.30538C8.54391 9.55128 8.23043 9.60043 8.23043 9.78489C8.23043 9.92628 8.33488 10 8.54391 10H10.007C10.1423 10 10.2714 9.87091 10.2714 9.72953C10.2714 9.582 10.0378 9.54514 10.0378 9.34225C10.0378 9.11478 10.3574 7.5164 10.5788 6.28689C10.6526 5.88115 10.9599 5.94878 10.9599 5.70902C10.9599 5.59222 10.8862 5.5 10.6771 5.5H9.36155C9.14023 5.5 8.99885 5.59222 8.85132 5.89345L7.84922 7.92214H7.83693C7.59103 5.81968 7.56646 5.5 7.22219 5.5H5.83284C5.56235 5.50615 5.43325 5.59836 5.4271 5.76435C5.4271 5.92419 5.67301 5.95492 5.67301 6.15779C5.67301 6.33607 5.26111 8.75822 5.19349 9.1701C5.11973 9.63115 4.80005 9.56971 4.80005 9.79718C4.80005 9.95699 4.93529 10 5.15661 10H5.67915Z" fill="white"/>
<mask id="mask1_350_2673" style="mask-type:alpha" maskUnits="userSpaceOnUse" x="0" y="5" width="16" height="6">
<path d="M10.5 9.20207C10.5 9.90685 11.6897 10.3005 12.7291 10.3005C13.9462 10.3005 15.2316 9.5386 15.2316 8.45922C15.2316 7.0116 12.7291 7.43065 12.7291 6.56081C12.7291 6.24969 13.0573 5.99573 13.5359 5.99573C14.8829 5.99573 14.2607 7.04969 14.8829 7.04969C15.1632 7.04969 15.3 6.84652 15.3 6.09731C15.3 5.79255 14.1786 5.50049 13.3923 5.50049C11.9085 5.50049 11.047 6.30049 11.047 7.21477C11.047 8.77668 13.5496 8.25605 13.5496 9.08144C13.5496 9.4243 13.194 9.74172 12.6333 9.74172C11.2932 9.74172 11.594 8.72588 10.9855 8.72588C10.6983 8.72588 10.5 8.9481 10.5 9.20207Z" fill="white"/>
<path d="M5.67915 10C5.87588 10 6.02957 9.92013 6.02957 9.74796C6.02957 9.57586 5.78366 9.56357 5.78366 9.3361C5.78366 9.18855 5.89431 8.90576 6.2017 6.2623H6.21399L6.64432 8.97953C6.6935 9.28688 6.82875 9.40983 7.23447 9.40983C7.51117 9.40983 7.66483 9.40368 7.92302 8.88117L9.17709 6.33607L9.18945 6.34837C8.66072 8.77051 8.63614 9.041 8.58692 9.30538C8.54391 9.55128 8.23043 9.60043 8.23043 9.78489C8.23043 9.92628 8.33488 10 8.54391 10H10.007C10.1423 10 10.2714 9.87091 10.2714 9.72953C10.2714 9.582 10.0378 9.54514 10.0378 9.34225C10.0378 9.11478 10.3574 7.5164 10.5788 6.28689C10.6526 5.88115 10.9599 5.94878 10.9599 5.70902C10.9599 5.59222 10.8862 5.5 10.6771 5.5H9.36155C9.14023 5.5 8.99885 5.59222 8.85132 5.89345L7.84922 7.92214H7.83693C7.59103 5.81968 7.56646 5.5 7.22219 5.5H5.83284C5.56235 5.50615 5.43325 5.59836 5.4271 5.76435C5.4271 5.92419 5.67301 5.95492 5.67301 6.15779C5.67301 6.33607 5.26111 8.75822 5.19349 9.1701C5.11973 9.63115 4.80005 9.56971 4.80005 9.79718C4.80005 9.95699 4.93529 10 5.15661 10H5.67915Z" fill="white"/>
<path d="M3.27643 6.05551H2.80288C1.65283 6.05551 1.89883 6.62131 1.45603 6.62131C1.30228 6.62131 1.21618 6.54751 1.21618 6.42451C1.21618 6.24001 1.26538 5.51431 1.70818 5.51431H4.88158C5.04763 5.51431 5.12758 5.56966 5.12758 5.74801C5.12758 6.45526 2.24938 9.25351 2.24938 9.42571C2.24938 9.46261 2.28628 9.47491 2.32933 9.47491H3.18418C3.83608 9.47491 3.97753 8.89681 4.32808 8.89681C4.47568 8.89681 4.56178 8.96446 4.56178 9.08746C4.56178 9.17971 4.47568 9.37651 4.38343 9.68401C4.32808 9.87466 4.21738 10.0161 3.90373 10.0161H0.822579C0.601179 10.0161 0.490479 9.88696 0.490479 9.68401C0.490479 9.01366 3.38098 6.25846 3.38098 6.09241C3.38098 6.06166 3.34408 6.05551 3.27643 6.05551Z" fill="#00189C"/>
</mask>
<g mask="url(#mask1_350_2673)">
<path d="M8.56527 12L7 5.08387L7.32609 4L16 4.67097L14.5 11.5872L8.56527 12Z" fill="black"/>
<path d="M10.5 11.9605L9.26998 4.99122C8.10151 4.51917 5.6573 3.04431 5.56059 3.00236C5.43972 2.94991 0.483778 3.7891 0.423342 3.89399C0.362906 3.9989 0.0607032 11.7615 0.000267362 11.9188C-0.0480766 12.0447 6.4708 11.9955 10.5 11.9605Z" fill="white"/>
</g>
</g>
</g>
<defs>
<clipPath id="clip0_350_2673">
<rect width="16" height="16" fill="white"/>
</clipPath>
</defs>
</svg>
